<svg xmlns="http://www.w3.org/2000/svg" viewBox="0 0 200 60">
  <!-- Main background -->
  <rect x="0" y="0" width="200" height="60" fill="transparent"/>
  
  <!-- Medical cross symbol -->
  <g transform="translate(10, 10)">
    <path d="M20 0 C8.954305 0 0 8.954305 0 20 C0 31.045695 8.954305 40 20 40 C31.045695 40 40 31.045695 40 20 C40 8.954305 31.045695 0 20 0 Z" fill="#7E6CAB"/>
    <path d="M21 8 L19 8 L19 19 L8 19 L8 21 L19 21 L19 32 L21 32 L21 21 L32 21 L32 19 L21 19 L21 8 Z" fill="white"/>
  </g>
  
  <!-- Text "MedCare" -->
  <text x="60" y="35" font-family="Arial, sans-serif" font-size="24" font-weight="bold" fill="#2D3748">
    Med<tspan fill="#7E6CAB">Care</tspan>
  </text>
  
  <!-- Pulse line decorative element -->
  <path d="M160 30 L165 30 L168 20 L171 40 L174 30 L180 30" 
        stroke="#7E6CAB" 
        stroke-width="2" 
        fill="none"
        stroke-linecap="round"/>
</svg>